<?xml version="1.0" encoding="utf-8"?><svg xmlns="http://www.w3.org/2000/svg" xmlns:xlink="http://www.w3.org/1999/xlink">
<symbol id="lydia" viewBox="46.8 31.8 153.15 170.8" xmlns="http://www.w3.org/2000/svg">
 <ellipse id="ellipse4" cx="123.38" cy="117.2" rx="85.5" ry="85.4" fill="#0180ff"/>
 <path id="path6" d="m130.38 70.8 36.7 84.1c0.2 0.6 0.2 1.2-0.2 1.7-0.3 0.5-0.9 0.8-1.5 0.8h-8.5c-1.3 0-2.5-0.8-3-2l-30.4-73.2-30.4 73.2c-0.5 1.2-1.7 2-2.9 2h-8.7c-0.6 0-1.2-0.3-1.5-0.8s-0.4-1.1-0.2-1.7l36.8-84c0.7-1.6 2.3-2.7 4.1-2.7h5.5c1.8-0.1 3.5 1 4.2 2.6z" fill="#f9f9fa" stroke="#fff" stroke-width="2.45"/>
</symbol>
</svg>
